<svg xmlns="http://www.w3.org/2000/svg" xmlns:xlink="http://www.w3.org/1999/xlink" width="211" zoomAndPan="magnify" viewBox="0 0 158.25 158.250002" height="211" preserveAspectRatio="xMidYMid meet" version="1.0"><defs><clipPath id="58a4dcc8b2"><path d="M 0 0 L 156.757812 0 L 156.757812 156.757812 L 0 156.757812 Z M 0 0 " clip-rule="nonzero"/></clipPath><clipPath id="846d4da46e"><path d="M 71.4375 146.503906 L 81.890625 146.503906 L 81.890625 156.953125 L 71.4375 156.953125 Z M 71.4375 146.503906 " clip-rule="nonzero"/></clipPath></defs><g clip-path="url(#58a4dcc8b2)"><path fill="#aee500" d="M 78.511719 0 C 35.222656 0 0 35.222656 0 78.507812 C 0 121.804688 35.222656 157.023438 78.511719 157.023438 C 121.804688 157.023438 157.023438 121.804688 157.023438 78.507812 C 157.023438 35.222656 121.804688 0 78.511719 0 Z M 78.511719 146.4375 C 41.058594 146.4375 10.585938 115.960938 10.585938 78.507812 C 10.585938 41.054688 41.058594 10.585938 78.511719 10.585938 C 115.96875 10.585938 146.4375 41.054688 146.4375 78.507812 C 146.4375 115.960938 115.96875 146.4375 78.511719 146.4375 Z M 78.511719 146.4375 " fill-opacity="1" fill-rule="nonzero"/></g><path fill="#aee500" d="M 80.386719 74.300781 C 68.019531 71.871094 62.191406 70.039062 62.191406 63.847656 C 62.191406 59.371094 64.132812 56.257812 68.117188 54.324219 C 75.042969 50.976562 86.539062 52.277344 92.714844 57.136719 C 95.019531 58.957031 98.34375 58.554688 100.148438 56.25 C 101.957031 53.953125 101.558594 50.625 99.257812 48.824219 C 95.027344 45.5 89.527344 43.382812 83.800781 42.445312 L 83.800781 33.039062 C 83.800781 30.113281 81.433594 27.746094 78.507812 27.746094 C 75.582031 27.746094 73.214844 30.113281 73.214844 33.039062 L 73.214844 42.136719 C 69.75 42.535156 66.421875 43.382812 63.492188 44.804688 C 55.824219 48.527344 51.605469 55.285156 51.605469 63.847656 C 51.605469 79.425781 67.058594 82.464844 78.339844 84.6875 C 90.511719 87.074219 94.832031 88.71875 94.832031 93.164062 C 94.832031 97.519531 92.996094 100.585938 89.226562 102.53125 C 82.578125 105.984375 71.457031 104.960938 64.925781 100.328125 C 62.535156 98.652344 59.234375 99.203125 57.546875 101.589844 C 55.855469 103.980469 56.414062 107.277344 58.804688 108.972656 C 62.863281 111.847656 67.949219 113.699219 73.214844 114.554688 L 73.214844 127.210938 C 73.214844 130.136719 75.582031 132.503906 78.507812 132.503906 C 81.433594 132.503906 83.800781 130.136719 83.800781 127.210938 L 83.800781 114.695312 C 87.496094 114.28125 91.0625 113.503906 94.089844 111.941406 C 101.394531 108.164062 105.417969 101.496094 105.417969 93.167969 C 105.421875 79.222656 91.542969 76.492188 80.386719 74.300781 Z M 80.386719 74.300781 " fill-opacity="1" fill-rule="nonzero"/><g clip-path="url(#846d4da46e)"><path fill="#ffffff" d="M 73.050781 155.136719 C 73.050781 155.136719 73.054688 155.136719 73.054688 155.136719 C 73.101562 155.136719 73.140625 155.121094 73.175781 155.089844 L 74.210938 154.050781 C 74.28125 153.980469 74.285156 153.90625 74.222656 153.828125 C 73.789062 153.296875 73.574219 152.691406 73.574219 152.007812 C 73.574219 150.421875 74.867188 149.128906 76.453125 149.128906 C 76.566406 149.128906 76.621094 149.074219 76.621094 148.960938 L 76.621094 147.5 C 76.621094 147.390625 76.566406 147.332031 76.453125 147.332031 C 76.003906 147.332031 75.566406 147.398438 75.132812 147.523438 C 74.703125 147.648438 74.300781 147.835938 73.921875 148.078125 C 73.546875 148.320312 73.210938 148.613281 72.917969 148.949219 C 72.621094 149.289062 72.382812 149.664062 72.195312 150.074219 C 72.011719 150.480469 71.886719 150.90625 71.824219 151.351562 C 71.761719 151.796875 71.761719 152.242188 71.828125 152.683594 C 71.890625 153.128906 72.019531 153.554688 72.207031 153.960938 C 72.394531 154.371094 72.636719 154.742188 72.929688 155.082031 C 72.960938 155.117188 73 155.136719 73.050781 155.136719 Z M 76.285156 147.671875 L 76.285156 148.796875 C 74.589844 148.886719 73.238281 150.292969 73.238281 152.007812 C 73.238281 152.714844 73.449219 153.351562 73.871094 153.921875 L 73.066406 154.722656 C 72.429688 153.929688 72.113281 153.023438 72.113281 152.007812 C 72.113281 149.671875 73.96875 147.761719 76.285156 147.671875 Z M 74.410156 154.25 L 73.371094 155.289062 C 73.289062 155.371094 73.289062 155.453125 73.378906 155.53125 C 73.71875 155.828125 74.089844 156.066406 74.5 156.253906 C 74.90625 156.441406 75.332031 156.570312 75.777344 156.632812 C 76.21875 156.699219 76.664062 156.699219 77.109375 156.636719 C 77.554688 156.574219 77.980469 156.449219 78.386719 156.265625 C 78.796875 156.078125 79.171875 155.839844 79.511719 155.546875 C 79.847656 155.25 80.140625 154.917969 80.382812 154.539062 C 80.625 154.160156 80.8125 153.757812 80.9375 153.328125 C 81.0625 152.898438 81.128906 152.457031 81.128906 152.007812 C 81.128906 151.898438 81.070312 151.839844 80.960938 151.839844 L 79.5 151.839844 C 79.386719 151.839844 79.332031 151.898438 79.332031 152.007812 C 79.332031 153.597656 78.039062 154.886719 76.453125 154.886719 C 75.769531 154.886719 75.164062 154.671875 74.632812 154.238281 C 74.554688 154.175781 74.480469 154.179688 74.410156 154.25 Z M 79.664062 152.175781 L 80.789062 152.175781 C 80.699219 154.492188 78.789062 156.347656 76.453125 156.347656 C 75.4375 156.347656 74.53125 156.03125 73.738281 155.394531 L 74.542969 154.589844 C 75.109375 155.011719 75.746094 155.222656 76.453125 155.222656 C 78.167969 155.222656 79.574219 153.871094 79.664062 152.175781 Z M 81.914062 151.503906 C 81.945312 151.46875 81.960938 151.425781 81.953125 151.375 C 81.882812 150.753906 81.710938 150.164062 81.4375 149.601562 C 81.167969 149.039062 80.808594 148.535156 80.367188 148.09375 C 79.925781 147.652344 79.425781 147.292969 78.863281 147.023438 C 78.300781 146.75 77.707031 146.578125 77.085938 146.507812 C 76.960938 146.492188 76.898438 146.550781 76.898438 146.675781 L 76.898438 149.023438 C 76.898438 149.117188 76.945312 149.171875 77.035156 149.1875 C 77.597656 149.304688 78.082031 149.5625 78.492188 149.972656 C 78.898438 150.378906 79.160156 150.863281 79.273438 151.425781 C 79.292969 151.515625 79.347656 151.5625 79.4375 151.5625 L 81.789062 151.5625 C 81.835938 151.5625 81.878906 151.542969 81.914062 151.503906 Z M 79.570312 151.226562 C 79.425781 150.652344 79.144531 150.15625 78.726562 149.734375 C 78.308594 149.316406 77.808594 149.035156 77.234375 148.890625 L 77.234375 146.867188 C 79.464844 147.203125 81.257812 148.996094 81.597656 151.226562 Z M 77.464844 150.910156 L 75.710938 153.304688 C 75.644531 153.390625 75.570312 153.402344 75.480469 153.339844 C 75.390625 153.273438 75.378906 153.195312 75.441406 153.105469 L 77.191406 150.714844 C 77.257812 150.621094 77.335938 150.609375 77.429688 150.675781 C 77.519531 150.742188 77.53125 150.820312 77.464844 150.910156 Z M 75.574219 150.625 C 75.4375 150.625 75.316406 150.675781 75.21875 150.773438 C 75.121094 150.871094 75.070312 150.992188 75.070312 151.128906 L 75.070312 151.535156 C 75.070312 151.675781 75.117188 151.792969 75.21875 151.894531 C 75.316406 151.992188 75.433594 152.042969 75.574219 152.042969 C 75.714844 152.042969 75.835938 151.992188 75.933594 151.894531 C 76.03125 151.792969 76.082031 151.675781 76.082031 151.535156 L 76.082031 151.128906 C 76.082031 150.992188 76.03125 150.871094 75.933594 150.773438 C 75.832031 150.675781 75.714844 150.625 75.574219 150.625 Z M 75.746094 151.535156 C 75.746094 151.648438 75.691406 151.707031 75.574219 151.707031 C 75.460938 151.707031 75.402344 151.648438 75.40625 151.535156 L 75.40625 151.132812 C 75.402344 151.015625 75.460938 150.960938 75.574219 150.960938 C 75.691406 150.960938 75.746094 151.015625 75.746094 151.132812 Z M 76.824219 152.480469 L 76.824219 152.886719 C 76.824219 153.027344 76.875 153.144531 76.972656 153.246094 C 77.070312 153.34375 77.191406 153.394531 77.332031 153.394531 C 77.46875 153.394531 77.589844 153.34375 77.6875 153.246094 C 77.789062 153.144531 77.835938 153.027344 77.835938 152.886719 L 77.835938 152.480469 C 77.835938 152.34375 77.785156 152.226562 77.6875 152.125 C 77.589844 152.027344 77.46875 151.980469 77.332031 151.980469 C 77.191406 151.980469 77.074219 152.027344 76.976562 152.125 C 76.875 152.226562 76.828125 152.34375 76.824219 152.480469 Z M 77.5 152.480469 L 77.5 152.886719 C 77.5 153 77.445312 153.058594 77.332031 153.058594 C 77.214844 153.058594 77.160156 153 77.160156 152.886719 L 77.160156 152.480469 C 77.160156 152.371094 77.21875 152.3125 77.332031 152.3125 C 77.445312 152.3125 77.5 152.367188 77.5 152.480469 Z M 77.5 152.480469 " fill-opacity="1" fill-rule="nonzero"/></g></svg>