<svg xmlns="http://www.w3.org/2000/svg" xmlns:xlink="http://www.w3.org/1999/xlink" width="220" zoomAndPan="magnify" viewBox="0 0 165 158.249993" height="211" preserveAspectRatio="xMidYMid meet" version="1.0"><defs><clipPath id="e3e609918c"><path d="M 0.390625 0 L 163.863281 0 L 163.863281 156.757812 L 0.390625 156.757812 Z M 0.390625 0 " clip-rule="nonzero"/></clipPath><clipPath id="62a7b2fc93"><path d="M 82.160156 146.265625 L 92.609375 146.265625 L 92.609375 156.714844 L 82.160156 156.714844 Z M 82.160156 146.265625 " clip-rule="nonzero"/></clipPath></defs><g clip-path="url(#e3e609918c)"><path fill="#1d501c" d="M 16.007812 102.070312 L 37.367188 102.070312 C 38.46875 102.070312 39.359375 102.964844 39.359375 104.066406 L 39.359375 142.191406 L 50.992188 142.191406 L 50.992188 73.21875 C 50.992188 72.117188 51.886719 71.222656 52.988281 71.222656 L 74.347656 71.222656 C 75.449219 71.222656 76.339844 72.117188 76.339844 73.21875 L 76.339844 142.191406 L 87.972656 142.191406 L 87.972656 88.574219 C 87.972656 87.476562 88.867188 86.582031 89.964844 86.582031 L 111.328125 86.582031 C 112.425781 86.582031 113.320312 87.476562 113.320312 88.574219 L 113.320312 142.191406 L 124.953125 142.191406 L 124.953125 48.816406 C 124.953125 47.714844 125.84375 46.824219 126.945312 46.824219 L 148.304688 46.824219 C 149.40625 46.824219 150.300781 47.714844 150.300781 48.816406 L 150.300781 142.191406 L 161.878906 142.191406 C 162.980469 142.191406 163.871094 143.085938 163.871094 144.1875 L 163.871094 154.773438 C 163.871094 155.875 162.980469 156.765625 161.878906 156.765625 L 2.433594 156.765625 C 1.332031 156.765625 0.441406 155.875 0.441406 154.773438 L 0.441406 144.1875 C 0.441406 143.085938 1.332031 142.191406 2.433594 142.191406 L 14.015625 142.191406 L 14.015625 104.066406 C 14.015625 102.964844 14.90625 102.070312 16.007812 102.070312 Z M 150.007812 1.960938 C 150 0.863281 149.105469 -0.015625 148.007812 -0.0078125 L 119.242188 0.28125 C 117.128906 0.316406 115.226562 1.203125 113.867188 2.605469 C 112.542969 3.96875 111.726562 5.820312 111.707031 7.859375 C 111.703125 7.914062 111.699219 7.972656 111.699219 8.027344 L 111.707031 8.027344 L 111.707031 8.058594 C 111.738281 10.175781 112.625 12.078125 114.03125 13.4375 C 115.394531 14.757812 117.246094 15.578125 119.28125 15.597656 C 119.339844 15.601562 119.394531 15.605469 119.453125 15.605469 L 119.453125 15.597656 L 123.183594 15.539062 L 86.292969 51.695312 L 58.664062 27.816406 C 57.171875 26.523438 55.320312 25.910156 53.492188 25.953125 L 53.472656 25.953125 C 51.617188 25.996094 49.785156 26.707031 48.363281 28.058594 L 11.488281 63.289062 C 11.441406 63.328125 11.394531 63.367188 11.351562 63.414062 L 11.355469 63.417969 C 9.847656 64.871094 9.0625 66.800781 9.011719 68.75 C 8.964844 70.660156 9.628906 72.585938 11.007812 74.101562 C 11.054688 74.15625 11.101562 74.210938 11.152344 74.261719 L 11.15625 74.257812 C 12.609375 75.765625 14.539062 76.550781 16.488281 76.601562 C 18.449219 76.648438 20.429688 75.949219 21.960938 74.492188 L 53.910156 43.96875 L 81.449219 67.769531 L 81.5 67.816406 C 82.996094 69.160156 84.902344 69.8125 86.792969 69.769531 C 88.675781 69.726562 90.546875 68.996094 91.992188 67.574219 L 134.890625 25.53125 L 134.972656 30.59375 C 135.03125 34.226562 137.085938 36.535156 139.683594 37.527344 C 140.648438 37.894531 141.699219 38.070312 142.75 38.054688 C 143.800781 38.035156 144.839844 37.828125 145.796875 37.429688 C 148.363281 36.355469 150.34375 33.988281 150.289062 30.351562 Z M 146.316406 30.398438 L 146.058594 3.980469 L 119.304688 4.253906 C 118.289062 4.269531 117.375 4.699219 116.714844 5.378906 C 116.089844 6.023438 115.699219 6.898438 115.675781 7.859375 C 115.683594 7.914062 115.683594 7.972656 115.683594 8.027344 L 115.679688 8.027344 C 115.703125 9.03125 116.128906 9.9375 116.800781 10.589844 C 117.449219 11.214844 118.320312 11.605469 119.28125 11.625 C 119.339844 11.621094 119.394531 11.617188 119.453125 11.617188 L 119.453125 11.625 L 128.015625 11.488281 C 128.566406 11.457031 129.128906 11.652344 129.546875 12.078125 C 130.316406 12.863281 130.308594 14.121094 129.523438 14.890625 L 87.769531 55.8125 C 87.039062 56.53125 85.867188 56.578125 85.074219 55.898438 L 56.0625 30.820312 C 55.34375 30.199219 54.453125 29.902344 53.570312 29.921875 L 53.5625 29.921875 C 52.671875 29.941406 51.789062 30.285156 51.105469 30.9375 L 14.234375 66.164062 L 14.171875 66.230469 L 14.167969 66.226562 L 14.132812 66.261719 C 13.390625 66.964844 13.007812 67.902344 12.984375 68.84375 C 12.960938 69.753906 13.273438 70.671875 13.925781 71.398438 L 13.96875 71.441406 L 13.96875 71.445312 L 14 71.480469 C 14.707031 72.222656 15.640625 72.605469 16.582031 72.628906 C 17.527344 72.652344 18.480469 72.316406 19.222656 71.613281 L 52.472656 39.84375 C 53.207031 39.144531 54.363281 39.105469 55.144531 39.78125 L 84.042969 64.757812 C 84.082031 64.789062 84.125 64.824219 84.160156 64.855469 C 84.882812 65.503906 85.800781 65.820312 86.714844 65.800781 C 87.613281 65.777344 88.507812 65.425781 89.207031 64.738281 L 135.410156 19.457031 C 135.761719 19.113281 136.242188 18.898438 136.773438 18.890625 C 137.867188 18.871094 138.773438 19.746094 138.789062 20.84375 L 138.945312 30.53125 C 138.972656 32.265625 139.910156 33.351562 141.101562 33.804688 C 141.609375 34 142.152344 34.089844 142.6875 34.082031 C 143.226562 34.074219 143.769531 33.964844 144.269531 33.753906 C 145.441406 33.265625 146.34375 32.152344 146.316406 30.414062 Z M 37.367188 146.179688 L 4.425781 146.179688 L 4.425781 152.78125 L 159.882812 152.78125 L 159.882812 146.179688 Z M 146.3125 50.808594 L 128.9375 50.808594 L 128.9375 142.191406 L 146.3125 142.191406 Z M 109.332031 90.570312 L 91.957031 90.570312 L 91.957031 142.191406 L 109.332031 142.191406 Z M 72.351562 75.210938 L 54.980469 75.210938 L 54.980469 142.191406 L 72.351562 142.191406 Z M 35.375 106.058594 L 18 106.058594 L 18 142.191406 L 35.375 142.191406 Z M 35.375 106.058594 " fill-opacity="1" fill-rule="evenodd"/></g><g clip-path="url(#62a7b2fc93)"><path fill="#ffffff" d="M 83.769531 154.902344 C 83.773438 154.902344 83.773438 154.902344 83.777344 154.902344 C 83.824219 154.902344 83.863281 154.886719 83.894531 154.851562 L 84.929688 153.816406 C 85.003906 153.746094 85.007812 153.671875 84.941406 153.59375 C 84.511719 153.0625 84.296875 152.457031 84.296875 151.773438 C 84.296875 150.183594 85.585938 148.894531 87.171875 148.894531 C 87.285156 148.894531 87.339844 148.835938 87.339844 148.726562 L 87.339844 147.265625 C 87.339844 147.152344 87.285156 147.097656 87.171875 147.097656 C 86.726562 147.097656 86.285156 147.160156 85.855469 147.285156 C 85.425781 147.414062 85.019531 147.597656 84.644531 147.839844 C 84.265625 148.082031 83.929688 148.375 83.636719 148.714844 C 83.34375 149.054688 83.105469 149.429688 82.917969 149.835938 C 82.730469 150.246094 82.609375 150.671875 82.542969 151.117188 C 82.480469 151.558594 82.484375 152.003906 82.546875 152.449219 C 82.613281 152.890625 82.738281 153.316406 82.925781 153.726562 C 83.113281 154.132812 83.355469 154.507812 83.652344 154.84375 C 83.683594 154.882812 83.722656 154.898438 83.769531 154.902344 Z M 87.007812 147.433594 L 87.007812 148.5625 C 85.3125 148.648438 83.960938 150.054688 83.960938 151.773438 C 83.960938 152.480469 84.171875 153.117188 84.589844 153.683594 L 83.789062 154.488281 C 83.152344 153.695312 82.832031 152.789062 82.832031 151.773438 C 82.832031 149.433594 84.691406 147.523438 87.007812 147.433594 Z M 85.128906 154.015625 L 84.09375 155.050781 C 84.007812 155.136719 84.011719 155.21875 84.101562 155.296875 C 84.4375 155.589844 84.8125 155.832031 85.21875 156.019531 C 85.628906 156.207031 86.054688 156.332031 86.496094 156.398438 C 86.941406 156.460938 87.386719 156.464844 87.828125 156.402344 C 88.273438 156.335938 88.699219 156.214844 89.109375 156.027344 C 89.515625 155.839844 89.890625 155.601562 90.230469 155.308594 C 90.570312 155.015625 90.859375 154.679688 91.105469 154.300781 C 91.347656 153.925781 91.53125 153.523438 91.660156 153.089844 C 91.785156 152.660156 91.847656 152.222656 91.847656 151.773438 C 91.847656 151.660156 91.792969 151.605469 91.679688 151.605469 L 90.21875 151.605469 C 90.109375 151.605469 90.050781 151.660156 90.050781 151.773438 C 90.050781 153.359375 88.761719 154.652344 87.171875 154.652344 C 86.492188 154.648438 85.882812 154.433594 85.355469 154.003906 C 85.277344 153.9375 85.199219 153.941406 85.128906 154.015625 Z M 90.382812 151.941406 L 91.511719 151.941406 C 91.421875 154.253906 89.511719 156.113281 87.171875 156.113281 C 86.15625 156.113281 85.253906 155.792969 84.460938 155.160156 L 85.261719 154.355469 C 85.832031 154.773438 86.46875 154.984375 87.171875 154.984375 C 88.890625 154.984375 90.296875 153.632812 90.382812 151.941406 Z M 92.632812 151.269531 C 92.667969 151.230469 92.679688 151.1875 92.675781 151.136719 C 92.601562 150.519531 92.429688 149.925781 92.160156 149.363281 C 91.886719 148.800781 91.53125 148.296875 91.089844 147.855469 C 90.648438 147.414062 90.144531 147.058594 89.582031 146.785156 C 89.019531 146.515625 88.429688 146.34375 87.808594 146.269531 C 87.683594 146.257812 87.621094 146.3125 87.621094 146.4375 L 87.621094 148.789062 C 87.621094 148.878906 87.664062 148.933594 87.753906 148.953125 C 88.320312 149.066406 88.804688 149.328125 89.210938 149.734375 C 89.617188 150.140625 89.878906 150.628906 89.992188 151.191406 C 90.011719 151.28125 90.066406 151.324219 90.160156 151.324219 L 92.507812 151.324219 C 92.558594 151.324219 92.601562 151.304688 92.632812 151.269531 Z M 90.292969 150.988281 C 90.148438 150.414062 89.867188 149.917969 89.445312 149.5 C 89.027344 149.082031 88.53125 148.796875 87.957031 148.652344 L 87.957031 146.628906 C 90.1875 146.96875 91.980469 148.761719 92.316406 150.988281 Z M 88.183594 150.675781 L 86.433594 153.066406 C 86.367188 153.15625 86.289062 153.167969 86.199219 153.101562 C 86.109375 153.035156 86.097656 152.957031 86.164062 152.867188 L 87.914062 150.476562 C 87.980469 150.386719 88.058594 150.375 88.148438 150.441406 C 88.238281 150.507812 88.25 150.585938 88.183594 150.675781 Z M 86.296875 150.390625 C 86.15625 150.390625 86.039062 150.4375 85.9375 150.539062 C 85.839844 150.636719 85.792969 150.753906 85.792969 150.894531 L 85.792969 151.296875 C 85.789062 151.4375 85.839844 151.558594 85.9375 151.65625 C 86.035156 151.757812 86.15625 151.808594 86.296875 151.808594 C 86.4375 151.808594 86.554688 151.757812 86.65625 151.65625 C 86.753906 151.558594 86.800781 151.4375 86.800781 151.296875 L 86.800781 150.894531 C 86.800781 150.753906 86.75 150.636719 86.652344 150.539062 C 86.554688 150.4375 86.433594 150.390625 86.296875 150.390625 Z M 86.464844 151.296875 C 86.46875 151.414062 86.410156 151.46875 86.296875 151.46875 C 86.179688 151.46875 86.125 151.414062 86.125 151.296875 L 86.125 150.894531 C 86.125 150.78125 86.179688 150.722656 86.296875 150.722656 C 86.410156 150.722656 86.46875 150.78125 86.464844 150.894531 Z M 87.546875 152.246094 L 87.546875 152.648438 C 87.546875 152.789062 87.59375 152.910156 87.691406 153.007812 C 87.792969 153.109375 87.910156 153.15625 88.050781 153.15625 C 88.191406 153.15625 88.3125 153.109375 88.410156 153.007812 C 88.507812 152.910156 88.558594 152.789062 88.554688 152.648438 L 88.554688 152.246094 C 88.554688 152.105469 88.503906 151.988281 88.40625 151.890625 C 88.308594 151.792969 88.191406 151.742188 88.050781 151.742188 C 87.914062 151.742188 87.792969 151.792969 87.695312 151.890625 C 87.597656 151.988281 87.546875 152.105469 87.546875 152.246094 Z M 88.222656 152.246094 L 88.222656 152.648438 C 88.222656 152.765625 88.164062 152.820312 88.050781 152.820312 C 87.9375 152.820312 87.878906 152.765625 87.882812 152.648438 L 87.882812 152.246094 C 87.882812 152.132812 87.9375 152.078125 88.050781 152.074219 C 88.164062 152.074219 88.222656 152.132812 88.222656 152.246094 Z M 88.222656 152.246094 " fill-opacity="1" fill-rule="nonzero"/></g></svg>