<svg xmlns="http://www.w3.org/2000/svg" xmlns:xlink="http://www.w3.org/1999/xlink" width="211" zoomAndPan="magnify" viewBox="0 0 158.25 158.250002" height="211" preserveAspectRatio="xMidYMid meet" version="1.0"><defs><clipPath id="8755420876"><path d="M 0 0 L 156.757812 0 L 156.757812 156.757812 L 0 156.757812 Z M 0 0 " clip-rule="nonzero"/></clipPath><clipPath id="c561941577"><path d="M 73.25 146.503906 L 83.703125 146.503906 L 83.703125 156.953125 L 73.25 156.953125 Z M 73.25 146.503906 " clip-rule="nonzero"/></clipPath></defs><g clip-path="url(#8755420876)"><path fill="#1d501c" d="M 78.511719 0 C 35.222656 0 0 35.222656 0 78.507812 C 0 121.804688 35.222656 157.023438 78.511719 157.023438 C 121.804688 157.023438 157.023438 121.804688 157.023438 78.507812 C 157.023438 35.222656 121.804688 0 78.511719 0 Z M 78.511719 146.4375 C 41.058594 146.4375 10.585938 115.960938 10.585938 78.507812 C 10.585938 41.054688 41.058594 10.585938 78.511719 10.585938 C 115.96875 10.585938 146.4375 41.054688 146.4375 78.507812 C 146.4375 115.960938 115.96875 146.4375 78.511719 146.4375 Z M 78.511719 146.4375 " fill-opacity="1" fill-rule="nonzero"/></g><path fill="#1d501c" d="M 80.386719 74.300781 C 68.019531 71.871094 62.191406 70.039062 62.191406 63.847656 C 62.191406 59.371094 64.132812 56.257812 68.117188 54.324219 C 75.042969 50.976562 86.539062 52.277344 92.714844 57.136719 C 95.019531 58.957031 98.34375 58.554688 100.148438 56.25 C 101.957031 53.953125 101.558594 50.625 99.257812 48.824219 C 95.027344 45.5 89.527344 43.382812 83.800781 42.445312 L 83.800781 33.039062 C 83.800781 30.113281 81.433594 27.746094 78.507812 27.746094 C 75.582031 27.746094 73.214844 30.113281 73.214844 33.039062 L 73.214844 42.136719 C 69.75 42.535156 66.421875 43.382812 63.492188 44.804688 C 55.824219 48.527344 51.605469 55.285156 51.605469 63.847656 C 51.605469 79.425781 67.058594 82.464844 78.339844 84.6875 C 90.511719 87.074219 94.832031 88.71875 94.832031 93.164062 C 94.832031 97.519531 92.996094 100.585938 89.226562 102.53125 C 82.578125 105.984375 71.457031 104.960938 64.925781 100.328125 C 62.535156 98.652344 59.234375 99.203125 57.546875 101.589844 C 55.855469 103.980469 56.414062 107.277344 58.804688 108.972656 C 62.863281 111.847656 67.949219 113.699219 73.214844 114.554688 L 73.214844 127.210938 C 73.214844 130.136719 75.582031 132.503906 78.507812 132.503906 C 81.433594 132.503906 83.800781 130.136719 83.800781 127.210938 L 83.800781 114.695312 C 87.496094 114.28125 91.0625 113.503906 94.089844 111.941406 C 101.394531 108.164062 105.417969 101.496094 105.417969 93.167969 C 105.421875 79.222656 91.542969 76.492188 80.386719 74.300781 Z M 80.386719 74.300781 " fill-opacity="1" fill-rule="nonzero"/><g clip-path="url(#c561941577)"><path fill="#ffffff" d="M 74.863281 155.136719 C 74.863281 155.136719 74.867188 155.136719 74.867188 155.136719 C 74.914062 155.136719 74.953125 155.121094 74.988281 155.089844 L 76.023438 154.050781 C 76.09375 153.980469 76.097656 153.90625 76.035156 153.828125 C 75.601562 153.296875 75.386719 152.691406 75.386719 152.007812 C 75.386719 150.421875 76.679688 149.128906 78.265625 149.128906 C 78.378906 149.128906 78.433594 149.074219 78.433594 148.960938 L 78.433594 147.5 C 78.433594 147.390625 78.378906 147.332031 78.265625 147.332031 C 77.816406 147.332031 77.378906 147.398438 76.945312 147.523438 C 76.515625 147.648438 76.113281 147.835938 75.734375 148.078125 C 75.359375 148.320312 75.023438 148.613281 74.730469 148.949219 C 74.433594 149.289062 74.195312 149.664062 74.007812 150.074219 C 73.824219 150.480469 73.699219 150.90625 73.636719 151.351562 C 73.574219 151.796875 73.574219 152.242188 73.640625 152.683594 C 73.703125 153.128906 73.832031 153.554688 74.019531 153.960938 C 74.207031 154.371094 74.449219 154.742188 74.742188 155.082031 C 74.773438 155.117188 74.8125 155.136719 74.863281 155.136719 Z M 78.097656 147.671875 L 78.097656 148.796875 C 76.402344 148.886719 75.050781 150.292969 75.050781 152.007812 C 75.050781 152.714844 75.261719 153.351562 75.683594 153.921875 L 74.878906 154.722656 C 74.242188 153.929688 73.925781 153.023438 73.925781 152.007812 C 73.925781 149.671875 75.78125 147.761719 78.097656 147.671875 Z M 76.222656 154.25 L 75.183594 155.289062 C 75.101562 155.371094 75.101562 155.453125 75.191406 155.53125 C 75.53125 155.828125 75.902344 156.066406 76.3125 156.253906 C 76.71875 156.441406 77.144531 156.570312 77.589844 156.632812 C 78.03125 156.699219 78.476562 156.699219 78.921875 156.636719 C 79.367188 156.574219 79.792969 156.449219 80.199219 156.265625 C 80.609375 156.078125 80.984375 155.839844 81.324219 155.546875 C 81.660156 155.25 81.953125 154.917969 82.195312 154.539062 C 82.4375 154.160156 82.625 153.757812 82.75 153.328125 C 82.875 152.898438 82.941406 152.457031 82.941406 152.007812 C 82.941406 151.898438 82.882812 151.839844 82.773438 151.839844 L 81.3125 151.839844 C 81.199219 151.839844 81.144531 151.898438 81.144531 152.007812 C 81.144531 153.597656 79.851562 154.886719 78.265625 154.886719 C 77.582031 154.886719 76.976562 154.671875 76.445312 154.238281 C 76.367188 154.175781 76.292969 154.179688 76.222656 154.25 Z M 81.476562 152.175781 L 82.601562 152.175781 C 82.511719 154.492188 80.601562 156.347656 78.265625 156.347656 C 77.25 156.347656 76.34375 156.03125 75.550781 155.394531 L 76.355469 154.589844 C 76.921875 155.011719 77.558594 155.222656 78.265625 155.222656 C 79.980469 155.222656 81.386719 153.871094 81.476562 152.175781 Z M 83.726562 151.503906 C 83.757812 151.46875 83.773438 151.425781 83.765625 151.375 C 83.695312 150.753906 83.523438 150.164062 83.25 149.601562 C 82.980469 149.039062 82.621094 148.535156 82.179688 148.09375 C 81.738281 147.652344 81.238281 147.292969 80.675781 147.023438 C 80.113281 146.75 79.519531 146.578125 78.898438 146.507812 C 78.773438 146.492188 78.710938 146.550781 78.710938 146.675781 L 78.710938 149.023438 C 78.710938 149.117188 78.757812 149.171875 78.847656 149.1875 C 79.410156 149.304688 79.894531 149.5625 80.304688 149.972656 C 80.710938 150.378906 80.972656 150.863281 81.085938 151.425781 C 81.105469 151.515625 81.160156 151.5625 81.25 151.5625 L 83.601562 151.5625 C 83.648438 151.5625 83.691406 151.542969 83.726562 151.503906 Z M 81.382812 151.226562 C 81.238281 150.652344 80.957031 150.15625 80.539062 149.734375 C 80.121094 149.316406 79.621094 149.035156 79.046875 148.890625 L 79.046875 146.867188 C 81.277344 147.203125 83.070312 148.996094 83.410156 151.226562 Z M 79.277344 150.910156 L 77.523438 153.304688 C 77.457031 153.390625 77.382812 153.402344 77.292969 153.339844 C 77.203125 153.273438 77.191406 153.195312 77.253906 153.105469 L 79.003906 150.714844 C 79.070312 150.621094 79.148438 150.609375 79.242188 150.675781 C 79.332031 150.742188 79.34375 150.820312 79.277344 150.910156 Z M 77.386719 150.625 C 77.25 150.625 77.128906 150.675781 77.03125 150.773438 C 76.933594 150.871094 76.882812 150.992188 76.882812 151.128906 L 76.882812 151.535156 C 76.882812 151.675781 76.929688 151.792969 77.03125 151.894531 C 77.128906 151.992188 77.246094 152.042969 77.386719 152.042969 C 77.527344 152.042969 77.648438 151.992188 77.746094 151.894531 C 77.84375 151.792969 77.894531 151.675781 77.894531 151.535156 L 77.894531 151.128906 C 77.894531 150.992188 77.84375 150.871094 77.746094 150.773438 C 77.644531 150.675781 77.527344 150.625 77.386719 150.625 Z M 77.558594 151.535156 C 77.558594 151.648438 77.503906 151.707031 77.386719 151.707031 C 77.273438 151.707031 77.214844 151.648438 77.21875 151.535156 L 77.21875 151.132812 C 77.214844 151.015625 77.273438 150.960938 77.386719 150.960938 C 77.503906 150.960938 77.558594 151.015625 77.558594 151.132812 Z M 78.636719 152.480469 L 78.636719 152.886719 C 78.636719 153.027344 78.6875 153.144531 78.785156 153.246094 C 78.882812 153.34375 79.003906 153.394531 79.144531 153.394531 C 79.28125 153.394531 79.402344 153.34375 79.5 153.246094 C 79.601562 153.144531 79.648438 153.027344 79.648438 152.886719 L 79.648438 152.480469 C 79.648438 152.34375 79.597656 152.226562 79.5 152.125 C 79.402344 152.027344 79.28125 151.980469 79.144531 151.980469 C 79.003906 151.980469 78.886719 152.027344 78.789062 152.125 C 78.6875 152.226562 78.640625 152.34375 78.636719 152.480469 Z M 79.3125 152.480469 L 79.3125 152.886719 C 79.3125 153 79.257812 153.058594 79.144531 153.058594 C 79.027344 153.058594 78.972656 153 78.972656 152.886719 L 78.972656 152.480469 C 78.976562 152.371094 79.03125 152.3125 79.144531 152.3125 C 79.257812 152.3125 79.3125 152.367188 79.3125 152.480469 Z M 79.3125 152.480469 " fill-opacity="1" fill-rule="nonzero"/></g></svg>