<svg xmlns="http://www.w3.org/2000/svg" xmlns:xlink="http://www.w3.org/1999/xlink" width="220" zoomAndPan="magnify" viewBox="0 0 165 158.249993" height="211" preserveAspectRatio="xMidYMid meet" version="1.0"><defs><clipPath id="a4be40bdfd"><path d="M 0.390625 0 L 163.863281 0 L 163.863281 156.757812 L 0.390625 156.757812 Z M 0.390625 0 " clip-rule="nonzero"/></clipPath><clipPath id="8806e230bb"><path d="M 77 141.113281 L 87.34375 141.113281 L 87.34375 151.5625 L 77 151.5625 Z M 77 141.113281 " clip-rule="nonzero"/></clipPath></defs><g clip-path="url(#a4be40bdfd)"><path fill="#aee500" d="M 16.007812 102.070312 L 37.367188 102.070312 C 38.46875 102.070312 39.359375 102.964844 39.359375 104.066406 L 39.359375 142.191406 L 50.992188 142.191406 L 50.992188 73.21875 C 50.992188 72.117188 51.886719 71.222656 52.988281 71.222656 L 74.347656 71.222656 C 75.449219 71.222656 76.339844 72.117188 76.339844 73.21875 L 76.339844 142.191406 L 87.972656 142.191406 L 87.972656 88.574219 C 87.972656 87.476562 88.867188 86.582031 89.964844 86.582031 L 111.328125 86.582031 C 112.425781 86.582031 113.320312 87.476562 113.320312 88.574219 L 113.320312 142.191406 L 124.953125 142.191406 L 124.953125 48.816406 C 124.953125 47.714844 125.84375 46.824219 126.945312 46.824219 L 148.304688 46.824219 C 149.40625 46.824219 150.300781 47.714844 150.300781 48.816406 L 150.300781 142.191406 L 161.878906 142.191406 C 162.980469 142.191406 163.871094 143.085938 163.871094 144.1875 L 163.871094 154.773438 C 163.871094 155.875 162.980469 156.765625 161.878906 156.765625 L 2.433594 156.765625 C 1.332031 156.765625 0.441406 155.875 0.441406 154.773438 L 0.441406 144.1875 C 0.441406 143.085938 1.332031 142.191406 2.433594 142.191406 L 14.015625 142.191406 L 14.015625 104.066406 C 14.015625 102.964844 14.90625 102.070312 16.007812 102.070312 Z M 150.007812 1.960938 C 150 0.863281 149.105469 -0.015625 148.007812 -0.0078125 L 119.242188 0.28125 C 117.128906 0.316406 115.226562 1.203125 113.867188 2.605469 C 112.542969 3.96875 111.726562 5.820312 111.707031 7.859375 C 111.703125 7.914062 111.699219 7.972656 111.699219 8.027344 L 111.707031 8.027344 L 111.707031 8.058594 C 111.738281 10.175781 112.625 12.078125 114.03125 13.4375 C 115.394531 14.757812 117.246094 15.578125 119.28125 15.597656 C 119.339844 15.601562 119.394531 15.605469 119.453125 15.605469 L 119.453125 15.597656 L 123.183594 15.539062 L 86.292969 51.695312 L 58.664062 27.816406 C 57.171875 26.523438 55.320312 25.910156 53.492188 25.953125 L 53.472656 25.953125 C 51.617188 25.996094 49.785156 26.707031 48.363281 28.058594 L 11.488281 63.289062 C 11.441406 63.328125 11.394531 63.367188 11.351562 63.414062 L 11.355469 63.417969 C 9.847656 64.871094 9.0625 66.800781 9.011719 68.75 C 8.964844 70.660156 9.628906 72.585938 11.007812 74.101562 C 11.054688 74.15625 11.101562 74.210938 11.152344 74.261719 L 11.15625 74.257812 C 12.609375 75.765625 14.539062 76.550781 16.488281 76.601562 C 18.449219 76.648438 20.429688 75.949219 21.960938 74.492188 L 53.910156 43.96875 L 81.449219 67.769531 L 81.5 67.816406 C 82.996094 69.160156 84.902344 69.8125 86.792969 69.769531 C 88.675781 69.726562 90.546875 68.996094 91.992188 67.574219 L 134.890625 25.53125 L 134.972656 30.59375 C 135.03125 34.226562 137.085938 36.535156 139.683594 37.527344 C 140.648438 37.894531 141.699219 38.070312 142.75 38.054688 C 143.800781 38.035156 144.839844 37.828125 145.796875 37.429688 C 148.363281 36.355469 150.34375 33.988281 150.289062 30.351562 Z M 146.316406 30.398438 L 146.058594 3.980469 L 119.304688 4.253906 C 118.289062 4.269531 117.375 4.699219 116.714844 5.378906 C 116.089844 6.023438 115.699219 6.898438 115.675781 7.859375 C 115.683594 7.914062 115.683594 7.972656 115.683594 8.027344 L 115.679688 8.027344 C 115.703125 9.03125 116.128906 9.9375 116.800781 10.589844 C 117.449219 11.214844 118.320312 11.605469 119.28125 11.625 C 119.339844 11.621094 119.394531 11.617188 119.453125 11.617188 L 119.453125 11.625 L 128.015625 11.488281 C 128.566406 11.457031 129.128906 11.652344 129.546875 12.078125 C 130.316406 12.863281 130.308594 14.121094 129.523438 14.890625 L 87.769531 55.8125 C 87.039062 56.53125 85.867188 56.578125 85.074219 55.898438 L 56.0625 30.820312 C 55.34375 30.199219 54.453125 29.902344 53.570312 29.921875 L 53.5625 29.921875 C 52.671875 29.941406 51.789062 30.285156 51.105469 30.9375 L 14.234375 66.164062 L 14.171875 66.230469 L 14.167969 66.226562 L 14.132812 66.261719 C 13.390625 66.964844 13.007812 67.902344 12.984375 68.84375 C 12.960938 69.753906 13.273438 70.671875 13.925781 71.398438 L 13.96875 71.441406 L 13.96875 71.445312 L 14 71.480469 C 14.707031 72.222656 15.640625 72.605469 16.582031 72.628906 C 17.527344 72.652344 18.480469 72.316406 19.222656 71.613281 L 52.472656 39.84375 C 53.207031 39.144531 54.363281 39.105469 55.144531 39.78125 L 84.042969 64.757812 C 84.082031 64.789062 84.125 64.824219 84.160156 64.855469 C 84.882812 65.503906 85.800781 65.820312 86.714844 65.800781 C 87.613281 65.777344 88.507812 65.425781 89.207031 64.738281 L 135.410156 19.457031 C 135.761719 19.113281 136.242188 18.898438 136.773438 18.890625 C 137.867188 18.871094 138.773438 19.746094 138.789062 20.84375 L 138.945312 30.53125 C 138.972656 32.265625 139.910156 33.351562 141.101562 33.804688 C 141.609375 34 142.152344 34.089844 142.6875 34.082031 C 143.226562 34.074219 143.769531 33.964844 144.269531 33.753906 C 145.441406 33.265625 146.34375 32.152344 146.316406 30.414062 Z M 37.367188 146.179688 L 4.425781 146.179688 L 4.425781 152.78125 L 159.882812 152.78125 L 159.882812 146.179688 Z M 146.3125 50.808594 L 128.9375 50.808594 L 128.9375 142.191406 L 146.3125 142.191406 Z M 109.332031 90.570312 L 91.957031 90.570312 L 91.957031 142.191406 L 109.332031 142.191406 Z M 72.351562 75.210938 L 54.980469 75.210938 L 54.980469 142.191406 L 72.351562 142.191406 Z M 35.375 106.058594 L 18 106.058594 L 18 142.191406 L 35.375 142.191406 Z M 35.375 106.058594 " fill-opacity="1" fill-rule="evenodd"/></g><g clip-path="url(#8806e230bb)"><path fill="#ffffff" d="M 78.507812 149.75 C 78.507812 149.75 78.511719 149.75 78.511719 149.75 C 78.558594 149.75 78.597656 149.730469 78.632812 149.699219 L 79.667969 148.664062 C 79.738281 148.59375 79.742188 148.515625 79.679688 148.4375 C 79.246094 147.910156 79.03125 147.300781 79.03125 146.621094 C 79.03125 145.03125 80.320312 143.738281 81.910156 143.738281 C 82.019531 143.738281 82.078125 143.683594 82.078125 143.574219 L 82.078125 142.113281 C 82.078125 142 82.019531 141.945312 81.910156 141.945312 C 81.460938 141.945312 81.019531 142.007812 80.589844 142.132812 C 80.160156 142.261719 79.757812 142.445312 79.378906 142.6875 C 79 142.929688 78.667969 143.222656 78.371094 143.5625 C 78.078125 143.902344 77.839844 144.273438 77.652344 144.683594 C 77.46875 145.09375 77.34375 145.519531 77.28125 145.960938 C 77.21875 146.40625 77.21875 146.851562 77.285156 147.296875 C 77.347656 147.738281 77.476562 148.164062 77.664062 148.574219 C 77.851562 148.980469 78.089844 149.351562 78.386719 149.691406 C 78.417969 149.726562 78.457031 149.746094 78.507812 149.75 Z M 81.742188 142.28125 L 81.742188 143.410156 C 80.046875 143.496094 78.695312 144.902344 78.695312 146.621094 C 78.695312 147.324219 78.90625 147.960938 79.324219 148.53125 L 78.523438 149.332031 C 77.886719 148.539062 77.570312 147.636719 77.570312 146.621094 C 77.570312 144.28125 79.425781 142.371094 81.742188 142.28125 Z M 79.867188 148.859375 L 78.828125 149.898438 C 78.742188 149.980469 78.746094 150.0625 78.835938 150.140625 C 79.175781 150.4375 79.546875 150.679688 79.957031 150.867188 C 80.363281 151.054688 80.789062 151.179688 81.234375 151.246094 C 81.675781 151.308594 82.121094 151.3125 82.566406 151.246094 C 83.007812 151.183594 83.4375 151.058594 83.84375 150.875 C 84.253906 150.6875 84.625 150.449219 84.964844 150.15625 C 85.304688 149.863281 85.597656 149.527344 85.839844 149.148438 C 86.082031 148.773438 86.265625 148.367188 86.394531 147.9375 C 86.519531 147.507812 86.582031 147.066406 86.582031 146.621094 C 86.582031 146.507812 86.527344 146.453125 86.417969 146.453125 L 84.957031 146.453125 C 84.84375 146.453125 84.789062 146.507812 84.789062 146.621094 C 84.789062 148.207031 83.496094 149.496094 81.910156 149.496094 C 81.226562 149.496094 80.621094 149.28125 80.089844 148.847656 C 80.011719 148.785156 79.9375 148.789062 79.867188 148.859375 Z M 85.117188 146.785156 L 86.246094 146.785156 C 86.15625 149.101562 84.246094 150.957031 81.910156 150.957031 C 80.894531 150.957031 79.988281 150.640625 79.195312 150.003906 L 79.996094 149.203125 C 80.566406 149.621094 81.203125 149.832031 81.910156 149.832031 C 83.625 149.832031 85.03125 148.480469 85.117188 146.785156 Z M 87.367188 146.117188 C 87.402344 146.078125 87.414062 146.035156 87.410156 145.984375 C 87.339844 145.363281 87.167969 144.773438 86.894531 144.210938 C 86.625 143.648438 86.265625 143.144531 85.824219 142.703125 C 85.382812 142.261719 84.878906 141.90625 84.316406 141.632812 C 83.753906 141.363281 83.164062 141.191406 82.542969 141.117188 C 82.417969 141.105469 82.355469 141.160156 82.355469 141.285156 L 82.355469 143.636719 C 82.355469 143.726562 82.402344 143.78125 82.492188 143.800781 C 83.054688 143.914062 83.539062 144.175781 83.945312 144.582031 C 84.355469 144.988281 84.613281 145.472656 84.730469 146.039062 C 84.75 146.128906 84.804688 146.171875 84.894531 146.171875 L 87.242188 146.171875 C 87.292969 146.171875 87.335938 146.152344 87.367188 146.117188 Z M 85.027344 145.835938 C 84.882812 145.261719 84.601562 144.765625 84.183594 144.347656 C 83.761719 143.925781 83.265625 143.644531 82.691406 143.5 L 82.691406 141.476562 C 84.921875 141.8125 86.714844 143.605469 87.050781 145.835938 Z M 82.921875 145.523438 L 81.167969 147.914062 C 81.101562 148.003906 81.023438 148.015625 80.9375 147.949219 C 80.847656 147.882812 80.835938 147.804688 80.898438 147.714844 L 82.648438 145.324219 C 82.714844 145.234375 82.792969 145.21875 82.882812 145.285156 C 82.976562 145.351562 82.988281 145.433594 82.921875 145.523438 Z M 81.03125 145.234375 C 80.890625 145.238281 80.773438 145.285156 80.675781 145.382812 C 80.578125 145.484375 80.527344 145.601562 80.527344 145.742188 L 80.527344 146.144531 C 80.527344 146.285156 80.574219 146.40625 80.671875 146.503906 C 80.773438 146.605469 80.890625 146.652344 81.03125 146.652344 C 81.171875 146.652344 81.292969 146.605469 81.390625 146.503906 C 81.488281 146.40625 81.539062 146.285156 81.535156 146.144531 L 81.535156 145.742188 C 81.535156 145.601562 81.488281 145.484375 81.386719 145.382812 C 81.289062 145.285156 81.171875 145.234375 81.03125 145.234375 Z M 81.203125 146.144531 C 81.203125 146.261719 81.144531 146.316406 81.03125 146.316406 C 80.917969 146.316406 80.859375 146.261719 80.863281 146.144531 L 80.863281 145.742188 C 80.859375 145.625 80.917969 145.570312 81.03125 145.570312 C 81.144531 145.570312 81.203125 145.625 81.203125 145.742188 Z M 82.28125 147.09375 L 82.28125 147.496094 C 82.28125 147.636719 82.332031 147.757812 82.429688 147.855469 C 82.527344 147.953125 82.648438 148.003906 82.785156 148.003906 C 82.925781 148.003906 83.046875 147.953125 83.144531 147.855469 C 83.242188 147.757812 83.292969 147.636719 83.292969 147.496094 L 83.292969 147.09375 C 83.292969 146.953125 83.242188 146.835938 83.144531 146.738281 C 83.042969 146.640625 82.925781 146.589844 82.785156 146.589844 C 82.648438 146.589844 82.53125 146.640625 82.429688 146.738281 C 82.332031 146.835938 82.28125 146.953125 82.28125 147.09375 Z M 82.957031 147.09375 L 82.957031 147.496094 C 82.957031 147.609375 82.902344 147.667969 82.785156 147.667969 C 82.671875 147.667969 82.617188 147.609375 82.617188 147.496094 L 82.617188 147.09375 C 82.617188 146.980469 82.675781 146.925781 82.785156 146.921875 C 82.898438 146.921875 82.957031 146.980469 82.957031 147.09375 Z M 82.957031 147.09375 " fill-opacity="1" fill-rule="nonzero"/></g></svg>