<svg xmlns="http://www.w3.org/2000/svg" xmlns:xlink="http://www.w3.org/1999/xlink" width="157" zoomAndPan="magnify" viewBox="0 0 117.75 159.749995" height="213" preserveAspectRatio="xMidYMid meet" version="1.0"><defs><clipPath id="5c2a605fbd"><path d="M 0 0.0429688 L 116.753906 0.0429688 L 116.753906 158.707031 L 0 158.707031 Z M 0 0.0429688 " clip-rule="nonzero"/></clipPath><clipPath id="30e21743f1"><path d="M 77.300781 43.53125 L 87.777344 43.53125 L 87.777344 54 L 77.300781 54 Z M 77.300781 43.53125 " clip-rule="nonzero"/></clipPath></defs><g clip-path="url(#5c2a605fbd)"><path fill="#aee500" d="M 81.695312 52.09375 C 81.398438 52.023438 81.195312 52.382812 81.40625 52.601562 C 96.816406 68.589844 110.191406 88.882812 110.125 112.042969 C 110.101562 120.683594 109.582031 124.9375 111.679688 130.996094 C 112.15625 132.367188 113.277344 134.589844 115.050781 137.667969 C 120.269531 146.734375 114.519531 155.183594 104.210938 153.542969 C 103.589844 153.445312 100.96875 152.964844 96.347656 152.09375 C 85.058594 149.96875 72.394531 162.902344 44.28125 157.195312 C 39.152344 156.152344 32.796875 153.730469 28.011719 152.515625 C 22.671875 151.160156 18.628906 152.566406 13.113281 153.554688 C 3.800781 155.222656 -3.15625 147.667969 1.46875 138.636719 C 3.972656 133.75 7.746094 129.101562 7.019531 119.453125 C 5.6875 101.722656 10.527344 86.101562 20.476562 71.4375 C 25.34375 64.257812 31.234375 57.253906 38.125 50.390625 C 38.433594 50.082031 38.480469 49.59375 38.230469 49.230469 C 36.335938 46.46875 36.546875 43.699219 38.835938 40.9375 C 38.96875 40.78125 38.964844 40.546875 38.816406 40.398438 C 32.851562 34.25 28.253906 27.074219 25.152344 18.742188 C 22.191406 10.792969 26.203125 6.347656 33.886719 8.035156 C 38.488281 9.042969 42.125 10.359375 45.65625 8.246094 C 46.074219 7.992188 47.332031 6.855469 49.417969 4.828125 C 54.03125 0.355469 60.375 -1.496094 66.25 1.671875 C 67.988281 2.609375 71.4375 5.617188 75.109375 5.628906 C 77.429688 5.636719 80.859375 3.578125 82.863281 3.140625 C 88.671875 1.882812 93.355469 5.777344 92.21875 11.660156 C 91.796875 13.855469 91.109375 15.707031 90.167969 17.203125 C 85.171875 25.152344 81.914062 29.675781 79.007812 35.699219 C 78.914062 35.886719 79.144531 36.082031 79.316406 35.949219 C 84.535156 31.902344 95.875 25.714844 102.023438 27.917969 C 108.898438 30.382812 110.355469 37.273438 104.652344 42.070312 C 100.824219 45.296875 94.203125 46.597656 89.042969 47.109375 C 88.84375 47.128906 88.792969 47.398438 88.976562 47.484375 C 96.105469 50.789062 102.378906 54.507812 107.144531 61.019531 C 108.300781 62.59375 109.316406 64.476562 107.660156 66.117188 C 104.511719 69.234375 102.195312 64.28125 100.203125 62.316406 C 94.988281 57.179688 88.804688 53.800781 81.699219 52.09375 Z M 30.8125 14.609375 C 32.128906 20.320312 36.175781 26.605469 39.832031 31.417969 C 41.9375 34.191406 45.550781 37.585938 48.753906 38.558594 C 49.082031 38.660156 49.386719 38.339844 49.261719 38.019531 L 45.191406 27.535156 C 44.628906 26.09375 45.148438 24.261719 47.058594 23.453125 C 48.390625 22.894531 49.925781 23.5 50.507812 24.828125 L 56.527344 38.570312 C 56.632812 38.824219 56.882812 38.988281 57.160156 38.988281 L 59.863281 38.988281 C 60.105469 38.988281 60.324219 38.835938 60.410156 38.605469 C 62.113281 33.988281 63.488281 29.96875 64.554688 26.554688 C 65.222656 24.417969 67.242188 23.359375 69.214844 24.746094 C 70.800781 25.859375 70.503906 28.089844 69.960938 29.804688 C 69.5625 31.070312 68.695312 33.800781 67.292969 37.972656 C 67.214844 38.203125 67.378906 38.441406 67.621094 38.46875 C 68.722656 38.574219 69.609375 38.136719 70.273438 37.195312 C 71.316406 35.710938 73.171875 32.59375 75.84375 27.839844 C 80.679688 19.238281 85.816406 13.339844 85.757812 10.105469 C 85.75 9.703125 85.347656 9.425781 84.96875 9.5625 C 83.332031 10.160156 81.828125 10.746094 80.464844 11.296875 C 76.761719 12.796875 72.894531 12.644531 69.316406 11.167969 C 64.617188 9.226562 61.191406 3.859375 55.136719 8.5625 C 53.375 9.929688 51.308594 12.714844 49.003906 14.027344 C 43.265625 17.292969 37.667969 15.566406 31.300781 14.113281 C 31.011719 14.046875 30.746094 14.3125 30.816406 14.609375 Z M 83.390625 41.460938 C 88.511719 41.464844 97.539062 40.5 101.25 36.542969 C 102.332031 35.390625 102.101562 34.445312 100.472656 34.121094 C 95.152344 33.0625 87.238281 37.507812 83.082031 40.496094 C 81.980469 41.289062 81.964844 41.457031 83.390625 41.460938 Z M 57.652344 48.117188 C 62.464844 48.203125 66.765625 47.90625 71.15625 46.207031 C 71.359375 46.128906 71.398438 45.84375 71.214844 45.71875 C 69.972656 44.871094 68.757812 45.691406 57.699219 45.496094 C 46.648438 45.300781 45.453125 44.457031 44.191406 45.25 C 44 45.371094 44.027344 45.652344 44.230469 45.738281 C 48.566406 47.578125 52.847656 48.035156 57.652344 48.117188 Z M 87.839844 145.519531 C 95.714844 144.417969 96.339844 145.175781 103.527344 146.59375 C 106.242188 147.132812 111.679688 147.429688 110.070312 142.980469 C 108.816406 139.507812 106.300781 136.972656 104.871094 132.597656 C 102.121094 124.1875 104.152344 115.964844 103.125 106.953125 C 101.753906 94.945312 97.367188 83.855469 89.976562 73.679688 C 84.972656 66.789062 79.191406 60.078125 72.703125 53.484375 C 72.40625 53.183594 71.972656 53.074219 71.570312 53.195312 L 69.652344 53.769531 C 69.421875 53.835938 69.308594 54.097656 69.421875 54.308594 C 72.386719 59.871094 74.4375 65.101562 75.558594 70.011719 C 75.855469 71.3125 77.113281 76.925781 76.019531 78.453125 C 74 81.277344 70.433594 79.613281 70.160156 76.441406 C 69.488281 68.734375 66.832031 61.601562 62.222656 55.007812 C 62.070312 54.789062 61.824219 54.664062 61.5625 54.664062 L 55.914062 54.664062 C 55.667969 54.664062 55.445312 54.792969 55.320312 54.996094 C 51.695312 60.824219 49.09375 66.648438 47.632812 72.550781 C 47.242188 74.128906 45.640625 75.078125 44.074219 74.660156 C 42.675781 74.429688 41.335938 72.769531 41.746094 70.910156 C 43.0625 64.921875 45.792969 58.75 48.238281 54.386719 C 48.359375 54.175781 48.234375 53.90625 47.988281 53.875 L 44.855469 53.40625 C 44.613281 53.367188 44.363281 53.457031 44.191406 53.644531 C 39.136719 59.136719 35.101562 63.722656 32.019531 67.328125 C 27.609375 72.492188 23.800781 78.234375 20.589844 84.558594 C 14.929688 95.699219 12.652344 107.605469 13.746094 120.269531 C 14.054688 123.855469 13.523438 127.84375 12.136719 132.234375 C 10.21875 138.304688 7.003906 140.953125 6.941406 144.65625 C 6.929688 145.441406 7.417969 146.144531 8.15625 146.402344 C 12.402344 147.890625 16.929688 145.363281 21.308594 145.03125 C 28.511719 144.492188 35.957031 148.15625 41.75 149.652344 C 49.089844 151.550781 56.464844 152.152344 63.890625 151.445312 C 72.574219 150.621094 80.355469 145.492188 85.164062 138.503906 C 86.878906 136.019531 87.925781 133.4375 89.351562 130.382812 C 89.449219 130.171875 89.59375 129.980469 89.78125 129.828125 C 90.589844 129.164062 91.554688 128.992188 92.65625 129.316406 C 98.105469 130.910156 89.375 143.21875 87.691406 145.257812 C 87.597656 145.367188 87.691406 145.542969 87.84375 145.519531 Z M 87.839844 145.519531 " fill-opacity="1" fill-rule="nonzero"/></g><g clip-path="url(#30e21743f1)"><path fill="#ffffff" d="M 78.917969 52.1875 C 78.917969 52.1875 78.921875 52.1875 78.921875 52.1875 C 78.96875 52.1875 79.007812 52.171875 79.042969 52.140625 L 80.082031 51.101562 C 80.152344 51.027344 80.15625 50.953125 80.09375 50.875 C 79.660156 50.34375 79.441406 49.734375 79.441406 49.050781 C 79.441406 47.457031 80.738281 46.164062 82.328125 46.164062 C 82.441406 46.164062 82.496094 46.109375 82.496094 45.996094 L 82.496094 44.53125 C 82.496094 44.417969 82.441406 44.363281 82.328125 44.363281 C 81.878906 44.363281 81.4375 44.425781 81.007812 44.554688 C 80.574219 44.679688 80.167969 44.867188 79.792969 45.109375 C 79.414062 45.351562 79.078125 45.644531 78.78125 45.984375 C 78.488281 46.324219 78.25 46.699219 78.0625 47.109375 C 77.875 47.519531 77.75 47.945312 77.6875 48.390625 C 77.625 48.835938 77.625 49.28125 77.691406 49.726562 C 77.757812 50.171875 77.882812 50.601562 78.070312 51.007812 C 78.257812 51.417969 78.5 51.792969 78.796875 52.128906 C 78.828125 52.167969 78.867188 52.1875 78.917969 52.1875 Z M 82.160156 44.703125 L 82.160156 45.832031 C 80.460938 45.917969 79.105469 47.328125 79.105469 49.050781 C 79.105469 49.757812 79.316406 50.398438 79.738281 50.96875 L 78.933594 51.773438 C 78.296875 50.976562 77.976562 50.070312 77.976562 49.050781 C 77.976562 46.707031 79.839844 44.789062 82.160156 44.703125 Z M 80.28125 51.296875 L 79.238281 52.335938 C 79.15625 52.421875 79.15625 52.503906 79.25 52.582031 C 79.585938 52.878906 79.960938 53.121094 80.371094 53.308594 C 80.777344 53.496094 81.207031 53.621094 81.652344 53.6875 C 82.097656 53.753906 82.542969 53.753906 82.988281 53.691406 C 83.433594 53.628906 83.859375 53.503906 84.269531 53.316406 C 84.679688 53.128906 85.054688 52.890625 85.394531 52.597656 C 85.734375 52.300781 86.027344 51.964844 86.269531 51.585938 C 86.511719 51.210938 86.699219 50.804688 86.824219 50.371094 C 86.953125 49.941406 87.015625 49.5 87.015625 49.050781 C 87.015625 48.9375 86.960938 48.882812 86.847656 48.882812 L 85.382812 48.882812 C 85.269531 48.882812 85.214844 48.9375 85.214844 49.050781 C 85.214844 50.640625 83.921875 51.9375 82.328125 51.9375 C 81.644531 51.9375 81.035156 51.71875 80.503906 51.285156 C 80.425781 51.222656 80.351562 51.226562 80.28125 51.296875 Z M 85.546875 49.21875 L 86.675781 49.21875 C 86.589844 51.539062 84.671875 53.402344 82.328125 53.402344 C 81.308594 53.402344 80.402344 53.082031 79.605469 52.445312 L 80.414062 51.640625 C 80.980469 52.0625 81.621094 52.273438 82.328125 52.273438 C 84.050781 52.273438 85.460938 50.917969 85.546875 49.21875 Z M 87.800781 48.546875 C 87.835938 48.507812 87.851562 48.464844 87.84375 48.414062 C 87.773438 47.792969 87.601562 47.199219 87.328125 46.636719 C 87.054688 46.070312 86.699219 45.566406 86.253906 45.125 C 85.8125 44.683594 85.308594 44.324219 84.742188 44.050781 C 84.179688 43.777344 83.585938 43.605469 82.964844 43.535156 C 82.839844 43.519531 82.777344 43.578125 82.777344 43.703125 L 82.777344 46.058594 C 82.777344 46.148438 82.820312 46.203125 82.910156 46.222656 C 83.476562 46.339844 83.964844 46.601562 84.371094 47.007812 C 84.78125 47.414062 85.042969 47.902344 85.15625 48.46875 C 85.175781 48.558594 85.230469 48.601562 85.320312 48.601562 L 87.675781 48.601562 C 87.726562 48.601562 87.769531 48.582031 87.800781 48.546875 Z M 85.457031 48.265625 C 85.308594 47.691406 85.027344 47.191406 84.609375 46.773438 C 84.1875 46.351562 83.691406 46.070312 83.113281 45.925781 L 83.113281 43.894531 C 85.347656 44.234375 87.148438 46.03125 87.484375 48.265625 Z M 83.34375 47.949219 L 81.585938 50.347656 C 81.519531 50.4375 81.441406 50.449219 81.351562 50.382812 C 81.261719 50.316406 81.25 50.238281 81.316406 50.148438 L 83.070312 47.753906 C 83.136719 47.660156 83.214844 47.648438 83.308594 47.714844 C 83.398438 47.78125 83.410156 47.859375 83.34375 47.949219 Z M 81.449219 47.664062 C 81.308594 47.664062 81.191406 47.714844 81.089844 47.8125 C 80.992188 47.910156 80.941406 48.03125 80.941406 48.171875 L 80.941406 48.574219 C 80.941406 48.714844 80.992188 48.835938 81.089844 48.9375 C 81.1875 49.035156 81.308594 49.085938 81.449219 49.085938 C 81.589844 49.085938 81.710938 49.035156 81.808594 48.9375 C 81.90625 48.835938 81.957031 48.714844 81.957031 48.574219 L 81.957031 48.171875 C 81.957031 48.03125 81.90625 47.910156 81.808594 47.8125 C 81.707031 47.714844 81.589844 47.664062 81.449219 47.664062 Z M 81.621094 48.574219 C 81.621094 48.691406 81.5625 48.746094 81.449219 48.746094 C 81.335938 48.746094 81.277344 48.691406 81.277344 48.574219 L 81.277344 48.171875 C 81.277344 48.054688 81.335938 48 81.449219 48 C 81.5625 48 81.621094 48.054688 81.621094 48.171875 Z M 82.703125 49.523438 L 82.703125 49.929688 C 82.703125 50.070312 82.75 50.191406 82.851562 50.289062 C 82.949219 50.390625 83.066406 50.441406 83.207031 50.441406 C 83.347656 50.441406 83.46875 50.390625 83.566406 50.289062 C 83.667969 50.191406 83.714844 50.070312 83.714844 49.929688 L 83.714844 49.523438 C 83.714844 49.386719 83.664062 49.265625 83.566406 49.167969 C 83.46875 49.070312 83.347656 49.023438 83.207031 49.023438 C 83.070312 49.023438 82.949219 49.070312 82.851562 49.167969 C 82.753906 49.265625 82.703125 49.386719 82.703125 49.523438 Z M 83.378906 49.523438 L 83.378906 49.929688 C 83.378906 50.042969 83.324219 50.101562 83.207031 50.101562 C 83.09375 50.101562 83.039062 50.042969 83.039062 49.929688 L 83.039062 49.523438 C 83.039062 49.414062 83.097656 49.355469 83.207031 49.355469 C 83.320312 49.355469 83.378906 49.410156 83.378906 49.523438 Z M 83.378906 49.523438 " fill-opacity="1" fill-rule="nonzero"/></g></svg>