<svg xmlns="http://www.w3.org/2000/svg" xmlns:xlink="http://www.w3.org/1999/xlink" width="157" zoomAndPan="magnify" viewBox="0 0 117.75 159.749995" height="213" preserveAspectRatio="xMidYMid meet" version="1.0"><defs><clipPath id="b7fc676b15"><path d="M 0 0.0429688 L 116.753906 0.0429688 L 116.753906 158.707031 L 0 158.707031 Z M 0 0.0429688 " clip-rule="nonzero"/></clipPath><clipPath id="d6dc41cf36"><path d="M 77.527344 43.53125 L 88.003906 43.53125 L 88.003906 54 L 77.527344 54 Z M 77.527344 43.53125 " clip-rule="nonzero"/></clipPath></defs><g clip-path="url(#b7fc676b15)"><path fill="#1d501c" d="M 81.695312 52.09375 C 81.398438 52.023438 81.195312 52.382812 81.40625 52.601562 C 96.816406 68.589844 110.191406 88.882812 110.125 112.042969 C 110.101562 120.683594 109.582031 124.9375 111.679688 130.996094 C 112.15625 132.367188 113.277344 134.589844 115.050781 137.667969 C 120.269531 146.734375 114.519531 155.183594 104.210938 153.542969 C 103.589844 153.445312 100.96875 152.964844 96.347656 152.09375 C 85.058594 149.96875 72.394531 162.902344 44.28125 157.195312 C 39.152344 156.152344 32.796875 153.730469 28.011719 152.515625 C 22.671875 151.160156 18.628906 152.566406 13.113281 153.554688 C 3.800781 155.222656 -3.15625 147.667969 1.46875 138.636719 C 3.972656 133.75 7.746094 129.101562 7.019531 119.453125 C 5.6875 101.722656 10.527344 86.101562 20.476562 71.4375 C 25.34375 64.257812 31.234375 57.253906 38.125 50.390625 C 38.433594 50.082031 38.480469 49.59375 38.230469 49.230469 C 36.335938 46.46875 36.546875 43.699219 38.835938 40.9375 C 38.96875 40.78125 38.964844 40.546875 38.816406 40.398438 C 32.851562 34.25 28.253906 27.074219 25.152344 18.742188 C 22.191406 10.792969 26.203125 6.347656 33.886719 8.035156 C 38.488281 9.042969 42.125 10.359375 45.65625 8.246094 C 46.074219 7.992188 47.332031 6.855469 49.417969 4.828125 C 54.03125 0.355469 60.375 -1.496094 66.25 1.671875 C 67.988281 2.609375 71.4375 5.617188 75.109375 5.628906 C 77.429688 5.636719 80.859375 3.578125 82.863281 3.140625 C 88.671875 1.882812 93.355469 5.777344 92.21875 11.660156 C 91.796875 13.855469 91.109375 15.707031 90.167969 17.203125 C 85.171875 25.152344 81.914062 29.675781 79.007812 35.699219 C 78.914062 35.886719 79.144531 36.082031 79.316406 35.949219 C 84.535156 31.902344 95.875 25.714844 102.023438 27.917969 C 108.898438 30.382812 110.355469 37.273438 104.652344 42.070312 C 100.824219 45.296875 94.203125 46.597656 89.042969 47.109375 C 88.84375 47.128906 88.792969 47.398438 88.976562 47.484375 C 96.105469 50.789062 102.378906 54.507812 107.144531 61.019531 C 108.300781 62.59375 109.316406 64.476562 107.660156 66.117188 C 104.511719 69.234375 102.195312 64.28125 100.203125 62.316406 C 94.988281 57.179688 88.804688 53.800781 81.699219 52.09375 Z M 30.8125 14.609375 C 32.128906 20.320312 36.175781 26.605469 39.832031 31.417969 C 41.9375 34.191406 45.550781 37.585938 48.753906 38.558594 C 49.082031 38.660156 49.386719 38.339844 49.261719 38.019531 L 45.191406 27.535156 C 44.628906 26.09375 45.148438 24.261719 47.058594 23.453125 C 48.390625 22.894531 49.925781 23.5 50.507812 24.828125 L 56.527344 38.570312 C 56.632812 38.824219 56.882812 38.988281 57.160156 38.988281 L 59.863281 38.988281 C 60.105469 38.988281 60.324219 38.835938 60.410156 38.605469 C 62.113281 33.988281 63.488281 29.96875 64.554688 26.554688 C 65.222656 24.417969 67.242188 23.359375 69.214844 24.746094 C 70.800781 25.859375 70.503906 28.089844 69.960938 29.804688 C 69.5625 31.070312 68.695312 33.800781 67.292969 37.972656 C 67.214844 38.203125 67.378906 38.441406 67.621094 38.46875 C 68.722656 38.574219 69.609375 38.136719 70.273438 37.195312 C 71.316406 35.710938 73.171875 32.59375 75.84375 27.839844 C 80.679688 19.238281 85.816406 13.339844 85.757812 10.105469 C 85.75 9.703125 85.347656 9.425781 84.96875 9.5625 C 83.332031 10.160156 81.828125 10.746094 80.464844 11.296875 C 76.761719 12.796875 72.894531 12.644531 69.316406 11.167969 C 64.617188 9.226562 61.191406 3.859375 55.136719 8.5625 C 53.375 9.929688 51.308594 12.714844 49.003906 14.027344 C 43.265625 17.292969 37.667969 15.566406 31.300781 14.113281 C 31.011719 14.046875 30.746094 14.3125 30.816406 14.609375 Z M 83.390625 41.460938 C 88.511719 41.464844 97.539062 40.5 101.25 36.542969 C 102.332031 35.390625 102.101562 34.445312 100.472656 34.121094 C 95.152344 33.0625 87.238281 37.507812 83.082031 40.496094 C 81.980469 41.289062 81.964844 41.457031 83.390625 41.460938 Z M 57.652344 48.117188 C 62.464844 48.203125 66.765625 47.90625 71.15625 46.207031 C 71.359375 46.128906 71.398438 45.84375 71.214844 45.71875 C 69.972656 44.871094 68.757812 45.691406 57.699219 45.496094 C 46.648438 45.300781 45.453125 44.457031 44.191406 45.25 C 44 45.371094 44.027344 45.652344 44.230469 45.738281 C 48.566406 47.578125 52.847656 48.035156 57.652344 48.117188 Z M 87.839844 145.519531 C 95.714844 144.417969 96.339844 145.175781 103.527344 146.59375 C 106.242188 147.132812 111.679688 147.429688 110.070312 142.980469 C 108.816406 139.507812 106.300781 136.972656 104.871094 132.597656 C 102.121094 124.1875 104.152344 115.964844 103.125 106.953125 C 101.753906 94.945312 97.367188 83.855469 89.976562 73.679688 C 84.972656 66.789062 79.191406 60.078125 72.703125 53.484375 C 72.40625 53.183594 71.972656 53.074219 71.570312 53.195312 L 69.652344 53.769531 C 69.421875 53.835938 69.308594 54.097656 69.421875 54.308594 C 72.386719 59.871094 74.4375 65.101562 75.558594 70.011719 C 75.855469 71.3125 77.113281 76.925781 76.019531 78.453125 C 74 81.277344 70.433594 79.613281 70.160156 76.441406 C 69.488281 68.734375 66.832031 61.601562 62.222656 55.007812 C 62.070312 54.789062 61.824219 54.664062 61.5625 54.664062 L 55.914062 54.664062 C 55.667969 54.664062 55.445312 54.792969 55.320312 54.996094 C 51.695312 60.824219 49.09375 66.648438 47.632812 72.550781 C 47.242188 74.128906 45.640625 75.078125 44.074219 74.660156 C 42.675781 74.429688 41.335938 72.769531 41.746094 70.910156 C 43.0625 64.921875 45.792969 58.75 48.238281 54.386719 C 48.359375 54.175781 48.234375 53.90625 47.988281 53.875 L 44.855469 53.40625 C 44.613281 53.367188 44.363281 53.457031 44.191406 53.644531 C 39.136719 59.136719 35.101562 63.722656 32.019531 67.328125 C 27.609375 72.492188 23.800781 78.234375 20.589844 84.558594 C 14.929688 95.699219 12.652344 107.605469 13.746094 120.269531 C 14.054688 123.855469 13.523438 127.84375 12.136719 132.234375 C 10.21875 138.304688 7.003906 140.953125 6.941406 144.65625 C 6.929688 145.441406 7.417969 146.144531 8.15625 146.402344 C 12.402344 147.890625 16.929688 145.363281 21.308594 145.03125 C 28.511719 144.492188 35.957031 148.15625 41.75 149.652344 C 49.089844 151.550781 56.464844 152.152344 63.890625 151.445312 C 72.574219 150.621094 80.355469 145.492188 85.164062 138.503906 C 86.878906 136.019531 87.925781 133.4375 89.351562 130.382812 C 89.449219 130.171875 89.59375 129.980469 89.78125 129.828125 C 90.589844 129.164062 91.554688 128.992188 92.65625 129.316406 C 98.105469 130.910156 89.375 143.21875 87.691406 145.257812 C 87.597656 145.367188 87.691406 145.542969 87.84375 145.519531 Z M 87.839844 145.519531 " fill-opacity="1" fill-rule="nonzero"/></g><g clip-path="url(#d6dc41cf36)"><path fill="#ffffff" d="M 79.140625 52.1875 C 79.144531 52.1875 79.144531 52.1875 79.148438 52.1875 C 79.195312 52.1875 79.234375 52.171875 79.265625 52.140625 L 80.304688 51.101562 C 80.378906 51.027344 80.382812 50.953125 80.316406 50.875 C 79.882812 50.34375 79.667969 49.734375 79.667969 49.050781 C 79.667969 47.457031 80.960938 46.164062 82.554688 46.164062 C 82.664062 46.164062 82.722656 46.109375 82.722656 45.996094 L 82.722656 44.53125 C 82.722656 44.417969 82.664062 44.363281 82.554688 44.363281 C 82.105469 44.363281 81.664062 44.425781 81.230469 44.554688 C 80.800781 44.679688 80.394531 44.867188 80.015625 45.109375 C 79.636719 45.351562 79.300781 45.644531 79.007812 45.984375 C 78.714844 46.324219 78.472656 46.699219 78.285156 47.109375 C 78.101562 47.519531 77.976562 47.945312 77.914062 48.390625 C 77.851562 48.835938 77.851562 49.28125 77.914062 49.726562 C 77.980469 50.171875 78.109375 50.601562 78.296875 51.007812 C 78.484375 51.417969 78.726562 51.792969 79.023438 52.128906 C 79.054688 52.167969 79.09375 52.1875 79.140625 52.1875 Z M 82.386719 44.703125 L 82.386719 45.832031 C 80.6875 45.917969 79.332031 47.328125 79.332031 49.050781 C 79.332031 49.757812 79.542969 50.398438 79.964844 50.96875 L 79.160156 51.773438 C 78.519531 50.976562 78.203125 50.070312 78.203125 49.050781 C 78.203125 46.707031 80.0625 44.789062 82.386719 44.703125 Z M 80.503906 51.296875 L 79.464844 52.335938 C 79.378906 52.421875 79.382812 52.503906 79.472656 52.582031 C 79.8125 52.878906 80.1875 53.121094 80.59375 53.308594 C 81.003906 53.496094 81.429688 53.621094 81.875 53.6875 C 82.320312 53.753906 82.765625 53.753906 83.210938 53.691406 C 83.65625 53.628906 84.085938 53.503906 84.492188 53.316406 C 84.902344 53.128906 85.277344 52.890625 85.617188 52.597656 C 85.960938 52.300781 86.25 51.964844 86.496094 51.585938 C 86.738281 51.210938 86.921875 50.804688 87.050781 50.371094 C 87.175781 49.941406 87.242188 49.5 87.242188 49.050781 C 87.242188 48.9375 87.183594 48.882812 87.074219 48.882812 L 85.609375 48.882812 C 85.496094 48.882812 85.441406 48.9375 85.441406 49.050781 C 85.441406 50.640625 84.144531 51.9375 82.554688 51.9375 C 81.867188 51.9375 81.261719 51.71875 80.730469 51.285156 C 80.652344 51.222656 80.574219 51.226562 80.503906 51.296875 Z M 85.773438 49.21875 L 86.902344 49.21875 C 86.8125 51.539062 84.898438 53.402344 82.554688 53.402344 C 81.535156 53.402344 80.628906 53.082031 79.832031 52.445312 L 80.636719 51.640625 C 81.207031 52.0625 81.847656 52.273438 82.554688 52.273438 C 84.273438 52.273438 85.683594 50.917969 85.773438 49.21875 Z M 88.027344 48.546875 C 88.0625 48.507812 88.074219 48.464844 88.070312 48.414062 C 87.996094 47.792969 87.824219 47.199219 87.550781 46.636719 C 87.28125 46.070312 86.921875 45.566406 86.480469 45.125 C 86.035156 44.683594 85.53125 44.324219 84.96875 44.050781 C 84.40625 43.777344 83.8125 43.605469 83.191406 43.535156 C 83.066406 43.519531 83.003906 43.578125 83.003906 43.703125 L 83.003906 46.058594 C 83.003906 46.148438 83.046875 46.203125 83.136719 46.222656 C 83.703125 46.339844 84.1875 46.601562 84.597656 47.007812 C 85.003906 47.414062 85.265625 47.902344 85.382812 48.46875 C 85.398438 48.558594 85.453125 48.601562 85.546875 48.601562 L 87.902344 48.601562 C 87.953125 48.601562 87.996094 48.582031 88.027344 48.546875 Z M 85.679688 48.265625 C 85.535156 47.691406 85.253906 47.191406 84.832031 46.773438 C 84.414062 46.351562 83.914062 46.070312 83.339844 45.925781 L 83.339844 43.894531 C 85.574219 44.234375 87.371094 46.03125 87.710938 48.265625 Z M 83.566406 47.949219 L 81.8125 50.347656 C 81.746094 50.4375 81.667969 50.449219 81.578125 50.382812 C 81.488281 50.316406 81.476562 50.238281 81.539062 50.148438 L 83.296875 47.753906 C 83.363281 47.660156 83.441406 47.648438 83.53125 47.714844 C 83.621094 47.78125 83.632812 47.859375 83.566406 47.949219 Z M 81.671875 47.664062 C 81.535156 47.664062 81.414062 47.714844 81.316406 47.8125 C 81.21875 47.910156 81.167969 48.03125 81.167969 48.171875 L 81.167969 48.574219 C 81.167969 48.714844 81.214844 48.835938 81.316406 48.9375 C 81.414062 49.035156 81.535156 49.085938 81.675781 49.085938 C 81.8125 49.085938 81.933594 49.035156 82.03125 48.9375 C 82.132812 48.835938 82.179688 48.714844 82.179688 48.574219 L 82.179688 48.171875 C 82.179688 48.03125 82.128906 47.910156 82.03125 47.8125 C 81.933594 47.714844 81.8125 47.664062 81.671875 47.664062 Z M 81.84375 48.574219 C 81.84375 48.691406 81.789062 48.746094 81.675781 48.746094 C 81.558594 48.746094 81.503906 48.691406 81.503906 48.574219 L 81.503906 48.171875 C 81.503906 48.054688 81.558594 48 81.675781 48 C 81.789062 48 81.84375 48.054688 81.84375 48.171875 Z M 82.925781 49.523438 L 82.925781 49.929688 C 82.925781 50.070312 82.976562 50.191406 83.074219 50.289062 C 83.171875 50.390625 83.292969 50.441406 83.433594 50.441406 C 83.574219 50.441406 83.695312 50.390625 83.792969 50.289062 C 83.890625 50.191406 83.941406 50.070312 83.941406 49.929688 L 83.941406 49.523438 C 83.9375 49.386719 83.890625 49.265625 83.789062 49.167969 C 83.691406 49.070312 83.574219 49.023438 83.433594 49.023438 C 83.292969 49.023438 83.175781 49.070312 83.078125 49.167969 C 82.976562 49.265625 82.929688 49.386719 82.925781 49.523438 Z M 83.605469 49.523438 L 83.605469 49.929688 C 83.605469 50.042969 83.546875 50.101562 83.433594 50.101562 C 83.320312 50.101562 83.261719 50.042969 83.261719 49.929688 L 83.261719 49.523438 C 83.265625 49.414062 83.320312 49.355469 83.433594 49.355469 C 83.546875 49.355469 83.605469 49.410156 83.605469 49.523438 Z M 83.605469 49.523438 " fill-opacity="1" fill-rule="nonzero"/></g></svg>