<svg xmlns="http://www.w3.org/2000/svg" xmlns:xlink="http://www.w3.org/1999/xlink" width="206" zoomAndPan="magnify" viewBox="0 0 154.5 159.749995" height="213" preserveAspectRatio="xMidYMid meet" version="1.0"><defs><clipPath id="ec3a7b38d0"><path d="M 4 0.132812 L 149 0.132812 L 149 159 L 4 159 Z M 4 0.132812 " clip-rule="nonzero"/></clipPath><clipPath id="d2addad069"><path d="M 1 0.132812 L 144.558594 0.132812 L 144.558594 158.625 L 1 158.625 Z M 1 0.132812 " clip-rule="nonzero"/></clipPath><clipPath id="abe3c4495f"><path d="M 34 38 L 112 38 L 112 116 L 34 116 Z M 34 38 " clip-rule="nonzero"/></clipPath><clipPath id="0fb9d2bd0b"><path d="M 72.816406 0.132812 L 149.605469 76.921875 L 72.816406 153.710938 L -3.972656 76.921875 Z M 72.816406 0.132812 " clip-rule="nonzero"/></clipPath><clipPath id="274b4292d8"><path d="M 72.816406 0.132812 L 149.605469 76.921875 L 72.816406 153.710938 L -3.972656 76.921875 Z M 72.816406 0.132812 " clip-rule="nonzero"/></clipPath><clipPath id="05cc769cc1"><rect x="0" width="145" y="0" height="159"/></clipPath></defs><g clip-path="url(#ec3a7b38d0)"><g transform="matrix(1, 0, 0, 1, 4, 0.000000000000008743)"><g clip-path="url(#05cc769cc1)"><g clip-path="url(#d2addad069)"><path fill="#1d501c" d="M 72.863281 158.585938 L 72.230469 158.398438 C 52.457031 152.21875 36.523438 141.222656 24.769531 125.730469 C 15.421875 113.375 8.734375 98.136719 4.933594 80.488281 C -1.527344 50.546875 2.429688 24.34375 2.621094 23.234375 L 2.8125 21.9375 L 72.832031 0.171875 L 142.851562 21.9375 L 143.042969 23.234375 C 143.199219 24.34375 147.160156 50.546875 140.726562 80.488281 C 136.925781 98.136719 130.242188 113.375 120.894531 125.730469 C 109.171875 141.222656 93.203125 152.21875 73.433594 158.398438 Z M 6.582031 25.136719 C 5.851562 30.777344 3.507812 54.160156 9.054688 79.726562 C 12.726562 96.773438 19.160156 111.410156 28.15625 123.261719 C 39.214844 137.867188 54.265625 148.289062 72.863281 154.214844 C 91.492188 148.257812 106.542969 137.835938 117.601562 123.195312 C 126.597656 111.316406 132.996094 96.644531 136.671875 79.601562 C 142.1875 54.0625 139.839844 30.746094 139.113281 25.136719 L 72.832031 4.542969 Z M 6.582031 25.136719 " fill-opacity="1" fill-rule="nonzero"/></g><g clip-path="url(#abe3c4495f)"><g clip-path="url(#0fb9d2bd0b)"><g clip-path="url(#274b4292d8)"><path fill="#1d501c" d="M 77.621094 81.777344 L 106.433594 81.777344 C 109.082031 81.777344 111.238281 79.628906 111.238281 76.976562 C 111.238281 74.328125 109.085938 72.171875 106.433594 72.171875 L 77.621094 72.171875 L 77.621094 43.363281 C 77.621094 40.710938 75.46875 38.554688 72.816406 38.554688 C 70.171875 38.554688 68.015625 40.707031 68.015625 43.363281 L 68.015625 72.171875 L 39.203125 72.171875 C 36.550781 72.171875 34.398438 74.324219 34.398438 76.976562 C 34.398438 79.625 36.546875 81.777344 39.203125 81.777344 L 68.015625 81.777344 L 68.015625 110.589844 C 68.015625 113.242188 70.164062 115.398438 72.816406 115.398438 C 75.464844 115.398438 77.621094 113.246094 77.621094 110.589844 Z M 77.621094 81.777344 " fill-opacity="1" fill-rule="evenodd"/></g></g></g></g></g></g></svg>